<svg 
 xmlns="http://www.w3.org/2000/svg"
 xmlns:xlink="http://www.w3.org/1999/xlink"
 width="201px" height="24px">
<path fill-rule="evenodd"  fill="rgb(17, 13, 11)"
 d="M195.272,13.150 C196.359,13.406 197.734,14.301 198.214,16.411 L200.196,23.318 L195.943,23.318 L194.185,16.475 C193.738,15.037 192.970,14.493 191.627,14.493 L187.663,14.493 L187.663,23.318 L183.698,23.318 L183.698,1.256 C186.224,1.000 187.950,0.968 191.723,0.968 C197.159,0.968 199.397,2.407 199.397,7.427 C199.397,10.720 198.310,12.607 195.272,12.990 L195.272,13.150 ZM195.336,7.683 C195.336,4.965 194.441,4.262 191.627,4.262 L187.663,4.262 L187.663,11.200 L191.627,11.200 C194.441,11.168 195.336,10.400 195.336,7.683 ZM170.958,20.088 L179.590,20.088 L179.782,23.126 C176.873,23.382 173.292,23.382 170.062,23.382 C167.153,23.382 165.362,21.783 165.330,19.193 L165.330,5.381 C165.362,2.791 167.185,1.192 170.062,1.192 C173.292,1.192 176.873,1.192 179.782,1.448 L179.590,4.517 L170.958,4.517 C169.806,4.517 169.359,4.997 169.359,6.372 L169.359,10.240 L178.407,10.240 L178.407,13.310 L169.359,13.310 L169.359,18.234 C169.359,19.609 169.806,20.088 170.958,20.088 ZM155.563,23.318 L151.534,23.318 L151.534,4.677 L144.788,4.677 L144.788,1.256 L162.373,1.256 L162.373,4.677 L155.563,4.677 L155.563,23.318 ZM140.165,23.318 L136.999,23.318 C136.136,23.318 135.688,22.934 135.337,22.103 L129.134,8.578 C128.718,7.683 128.047,6.308 127.823,5.285 L127.439,5.285 C127.599,6.404 127.631,7.523 127.631,8.610 L127.631,23.318 L123.698,23.318 L123.698,2.727 C123.698,1.768 124.242,1.256 125.201,1.256 L128.303,1.256 C129.166,1.256 129.582,1.640 129.965,2.471 L135.976,15.612 C136.392,16.571 137.031,17.914 137.511,19.097 L137.895,19.097 C137.799,17.882 137.735,16.699 137.735,15.516 L137.735,1.256 L141.635,1.256 L141.635,21.847 C141.635,22.806 141.124,23.318 140.165,23.318 ZM110.668,23.733 C104.369,23.733 102.067,21.271 102.067,14.685 L102.067,1.256 L106.064,1.256 L106.064,14.685 C106.064,18.937 107.183,20.312 110.508,20.312 C113.769,20.312 114.888,18.937 114.888,14.685 L114.888,1.256 L118.917,1.256 L118.917,14.685 C118.917,21.271 116.711,23.733 110.668,23.733 ZM88.940,23.733 C82.226,23.733 79.860,21.047 79.860,12.287 C79.860,3.526 82.226,0.840 88.940,0.840 C95.687,0.840 98.053,3.526 98.053,12.287 C98.053,21.047 95.687,23.733 88.940,23.733 ZM88.940,4.262 C85.231,4.262 84.080,6.148 84.080,12.287 C84.080,18.426 85.231,20.312 88.940,20.312 C92.681,20.312 93.832,18.426 93.832,12.287 C93.832,6.148 92.681,4.262 88.940,4.262 ZM70.669,23.701 C64.050,23.701 61.684,20.696 61.684,12.287 C61.684,3.878 64.050,0.872 70.669,0.872 C73.610,0.872 75.081,1.064 76.999,1.576 L76.616,4.613 C74.633,4.453 73.322,4.389 70.669,4.389 C67.024,4.389 65.905,6.244 65.905,12.287 C65.905,18.330 67.024,20.184 70.669,20.184 C73.482,20.184 75.209,20.120 77.095,19.865 L77.447,22.870 C75.496,23.478 73.706,23.701 70.669,23.701 ZM50.776,3.015 C49.209,3.015 48.409,3.814 48.217,5.381 L47.482,10.784 L57.330,10.816 L57.106,12.415 L47.258,12.447 L46.299,19.289 C46.075,20.792 46.747,21.559 48.217,21.559 L57.074,21.559 L57.042,23.158 C54.101,23.350 50.903,23.350 47.930,23.350 C45.180,23.350 43.837,21.751 44.157,19.321 L46.203,4.805 C46.491,2.631 47.994,1.224 50.488,1.224 C53.685,1.224 56.978,1.224 59.952,1.416 L59.664,3.015 L50.776,3.015 ZM32.407,23.318 L30.137,23.318 C29.721,23.318 29.433,22.998 29.369,22.646 L25.309,1.256 L27.451,1.256 L30.616,19.321 C30.744,20.120 30.904,20.920 31.000,21.719 L31.831,21.719 C32.151,20.920 32.535,19.992 32.886,19.193 L41.104,1.256 L43.310,1.256 L33.270,22.742 C33.110,23.126 32.823,23.318 32.407,23.318 ZM16.637,23.318 L19.739,1.256 L21.849,1.256 L18.748,23.318 L16.637,23.318 ZM4.954,21.559 L13.235,21.559 L13.171,23.158 C10.325,23.350 7.352,23.350 4.538,23.350 C2.076,23.350 0.605,21.847 0.957,19.225 L3.451,1.256 L5.561,1.256 L3.035,19.289 C2.843,20.632 3.451,21.559 4.954,21.559 Z"/>
</svg>